 <svg  version="1.0" xmlns="http://www.w3.org/2000/svg"  width="300.000000pt" height="225.000000pt" viewBox="0 0 300.000000 225.000000"  preserveAspectRatio="xMidYMid meet">  <g transform="translate(0.000000,225.000000) scale(0.100000,-0.100000)" fill="#ffffff" stroke="none"> <path d="M500 1125 l0 -705 705 0 705 0 0 120 c0 118 0 120 -22 120 -22 0 -23 -3 -23 -95 l0 -95 -658 -3 -657 -2 0 663 0 662 660 0 660 0 0 -100 c0 -93 1 -100 20 -100 19 0 20 7 20 120 l0 120 -705 0 -705 0 0 -705z"/> <path d="M1338 1553 c-1 -4 -1 -107 2 -227 4 -193 7 -220 22 -230 11 -7 20 -7 25 -1 5 6 6 111 3 235 -5 221 -5 225 -27 228 -11 2 -23 0 -25 -5z"/> <path d="M1069 1533 c-1 -5 -1 -15 0 -24 2 -18 -135 -366 -151 -387 -8 -9 -8 -16 0 -24 19 -19 43 0 65 52 l21 50 87 0 86 0 19 -52 c16 -45 23 -53 44 -53 14 0 24 5 23 10 -12 48 -143 408 -153 420 -13 16 -39 21 -41 8z m60 -184 c17 -53 31 -99 31 -102 0 -3 -32 -7 -70 -9 -39 -2 -70 -1 -70 1 0 7 75 210 77 208 1 -1 15 -45 32 -98z"/> <path d="M1533 1394 c-37 -18 -50 -48 -33 -69 20 -24 50 -19 50 8 0 32 18 47 57 47 38 0 53 -21 53 -74 0 -33 -3 -36 -27 -36 -47 0 -104 -20 -129 -45 -46 -46 -22 -119 42 -131 40 -7 104 16 104 38 1 7 8 1 16 -14 15 -29 38 -35 64 -18 13 9 13 12 -2 21 -15 9 -18 26 -18 120 0 109 0 111 -29 140 -24 23 -38 29 -73 29 -24 0 -57 -8 -75 -16z m127 -183 c0 -31 -6 -44 -26 -60 -15 -12 -37 -21 -50 -21 -25 0 -54 24 -54 46 0 21 36 53 67 60 16 3 33 7 38 9 22 7 25 3 25 -34z"/> <path d="M1820 1403 c-1 -4 -1 -71 0 -148 1 -151 8 -173 50 -160 16 5 19 10 11 18 -17 17 -14 163 4 197 19 37 69 64 101 56 35 -9 45 -45 43 -157 -2 -118 7 -137 51 -109 12 7 12 12 2 22 -8 8 -12 48 -12 125 0 109 -1 115 -26 140 -22 22 -32 25 -72 20 -37 -4 -52 -12 -74 -37 l-27 -33 -3 34 c-2 26 -8 35 -25 37 -13 2 -23 0 -23 -5z"/> <path d="M935 955 c-14 -13 -25 -33 -25 -43 0 -30 39 -72 86 -92 50 -22 70 -51 54 -80 -24 -45 -110 -33 -110 15 0 16 -6 25 -15 25 -10 0 -15 -10 -15 -34 0 -29 4 -36 31 -45 46 -16 80 -14 115 8 38 23 51 64 30 96 -9 13 -39 36 -67 52 -62 33 -79 55 -63 81 8 11 24 17 50 17 35 0 39 -3 42 -27 5 -42 32 -36 32 6 0 37 -15 46 -83 46 -27 0 -45 -7 -62 -25z"/> <path d="M1280 970 c0 -5 6 -10 14 -10 10 0 25 -35 46 -102 17 -57 36 -118 41 -135 7 -22 17 -33 30 -33 10 0 19 5 19 11 0 6 12 50 27 97 23 73 28 82 34 62 4 -14 18 -58 29 -97 17 -55 26 -73 40 -73 14 0 25 27 56 135 24 86 42 135 51 135 7 0 13 5 13 10 0 6 -20 10 -45 10 -44 0 -63 -15 -27 -22 17 -3 16 -12 -14 -123 -18 -66 -33 -111 -33 -100 -1 19 -42 170 -57 209 -4 12 0 16 15 16 12 0 21 5 21 10 0 6 -25 10 -55 10 -30 0 -55 -4 -55 -10 0 -5 6 -10 14 -10 27 0 27 -35 -1 -131 l-27 -96 -33 111 c-18 61 -33 112 -33 114 0 1 9 2 20 2 11 0 20 5 20 10 0 6 -25 10 -55 10 -30 0 -55 -4 -55 -10z"/> <path d="M1870 970 c0 -5 7 -10 15 -10 13 0 15 -20 15 -120 0 -100 -2 -120 -15 -120 -8 0 -15 -6 -15 -12 0 -10 27 -13 102 -13 94 0 104 2 110 20 17 53 -2 77 -24 30 -10 -22 -17 -25 -65 -25 l-53 0 0 55 0 55 35 0 c29 0 35 -4 35 -21 0 -11 5 -17 10 -14 6 3 10 26 10 51 0 24 -4 44 -10 44 -5 0 -10 -9 -10 -20 0 -16 -7 -20 -35 -20 l-35 0 0 55 0 55 50 0 c43 0 50 -3 50 -20 0 -12 7 -20 16 -20 12 0 15 6 10 23 -3 12 -6 25 -6 30 0 11 -190 9 -190 -3z"/> </g> </svg> 