<?xml version="1.0" standalone="no"?>
<!DOCTYPE svg PUBLIC "-//W3C//DTD SVG 20010904//EN"
 "http://www.w3.org/TR/2001/REC-SVG-20010904/DTD/svg10.dtd">
<svg version="1.0" xmlns="http://www.w3.org/2000/svg"
 width="300.000000pt" height="225.000000pt" viewBox="0 0 300.000000 225.000000"
 preserveAspectRatio="xMidYMid meet">
<metadata>
Created by potrace 1.10, written by Peter Selinger 2001-2011
</metadata>
<g transform="translate(0.000000,225.000000) scale(0.050000,-0.050000)"
fill="#ffffff" stroke="none">
<path d="M1000 2250 l0 -1410 1410 0 1410 0 0 240 0 240 -53 0 -53 0 13 -190
14 -190 -1321 0 -1320 0 0 1315 0 1315 1315 -5 1315 -5 -7 -190 -7 -190 52 0
52 0 0 240 0 240 -1410 0 -1410 0 0 -1410z"/>
<path d="M2675 2695 c7 -492 10 -520 68 -511 41 6 42 14 38 455 -3 485 -3 481
-67 481 l-44 0 5 -425z"/>
<path d="M2138 3066 c-2 -9 -1 -30 0 -47 3 -34 -270 -735 -302 -773 -23 -28
-5 -66 32 -66 38 0 84 60 111 145 l24 75 176 0 176 0 38 -105 c31 -88 46 -106
92 -111 58 -7 69 15 34 71 -12 19 -82 211 -155 425 -117 341 -140 391 -179
396 -25 4 -46 -1 -47 -10z m121 -368 c33 -106 61 -198 61 -205 0 -7 -64 -13
-142 -13 -78 0 -138 7 -135 16 4 8 38 102 77 208 38 106 71 192 73 189 2 -2
32 -90 66 -195z"/>
<path d="M3055 2789 c-95 -52 -98 -169 -4 -169 38 0 49 11 49 46 0 90 121 130
189 63 68 -69 41 -189 -44 -189 -94 -1 -235 -63 -263 -117 -90 -167 100 -309
273 -203 64 39 64 39 85 -1 23 -42 109 -53 132 -16 7 12 -1 31 -19 41 -28 15
-33 55 -33 245 l0 227 -62 52 c-71 61 -212 70 -303 21z m215 -484 c-61 -53
-134 -58 -179 -14 -61 62 9 159 135 184 l84 17 6 -71 c6 -56 -4 -80 -46 -116z"/>
<path d="M3639 2806 c-22 -365 12 -626 82 -626 47 0 70 37 41 66 -81 81 -2
416 111 469 138 66 167 24 167 -241 0 -240 20 -305 90 -291 38 7 49 351 16
497 -34 150 -207 191 -334 79 l-69 -61 -7 56 c-6 52 -94 99 -97 52z"/>
<path d="M1869 1911 c-95 -95 -50 -189 133 -282 92 -47 100 -56 94 -115 -9
-93 -202 -101 -212 -9 -10 84 -64 71 -64 -15 0 -126 237 -154 334 -41 82 95
45 180 -112 260 -116 59 -149 97 -132 150 27 85 190 76 190 -10 0 -30 12 -49
30 -49 42 0 41 131 -2 148 -80 31 -210 12 -259 -37z"/>
<path d="M2560 1941 c0 -10 14 -27 32 -37 18 -10 64 -124 108 -266 99 -323
132 -338 200 -94 48 173 78 249 79 199 4 -180 155 -443 188 -328 110 378 143
478 166 491 53 31 26 54 -63 54 -95 0 -109 -11 -60 -48 27 -20 24 -48 -28
-242 -32 -121 -60 -203 -60 -182 -1 21 -26 119 -56 218 -50 166 -51 181 -20
204 55 40 40 50 -76 50 -117 0 -135 -15 -70 -55 51 -32 50 -40 -16 -252 l-56
-176 -54 191 c-62 221 -65 252 -24 252 17 0 30 9 30 20 0 11 -49 20 -110 20
-60 0 -110 -9 -110 -19z"/>
<path d="M3740 1939 c0 -11 14 -25 30 -32 24 -9 30 -55 30 -239 0 -189 -5
-228 -30 -228 -16 0 -30 -11 -30 -25 0 -18 58 -27 203 -32 220 -7 236 0 237
102 0 70 -51 74 -68 5 -12 -46 -22 -50 -122 -50 l-110 0 0 110 c0 120 107 175
134 70 20 -75 46 -40 46 60 0 100 -26 135 -46 60 -27 -105 -134 -50 -134 70 0
94 5 110 38 110 80 0 162 -26 162 -52 0 -16 14 -28 30 -28 20 0 30 20 30 60
l0 60 -200 0 c-124 0 -200 -8 -200 -21z"/>
</g>
</svg>
