{
  "accessors": [
    {
      "bufferView": 2,
      "componentType": 5126,
      "count": 68,
      "max": [
        631.9033203125,
        368.3768310546875,
        104.91754150390625
      ],
      "min": [
        601.936767578125,
        164.6231689453125,
        101.20143127441406
      ],
      "type": "VEC3"
    },
    {
      "bufferView": 2,
      "byteOffset": 816,
      "componentType": 5126,
      "count": 68,
      "max": [
        0.03519582003355026,
        0.13723933696746826,
        0.9899168610572815
      ],
      "min": [
        0.035082731395959854,
        -0.13723953068256378,
        0.9899124503135681
      ],
      "type": "VEC3"
    },
    {
      "bufferView": 1,
      "componentType": 5126,
      "count": 68,
      "max": [
        25823.17578125,
        1585.389892578125
      ],
      "min": [
        -20612.248046875,
        -19319.74609375
      ],
      "type": "VEC2"
    },
    {
      "bufferView": 0,
      "componentType": 5125,
      "count": 180,
      "type": "SCALAR"
    },
    {
      "bufferView": 2,
      "byteOffset": 1632,
      "componentType": 5126,
      "count": 140,
      "max": [
        397.87420654296875,
        309.0921936035156,
        266.4954833984375
      ],
      "min": [
        245.60548400878906,
        223.90780639648438,
        168.11351013183594
      ],
      "type": "VEC3"
    },
    {
      "bufferView": 2,
      "byteOffset": 3312,
      "componentType": 5126,
      "count": 140,
      "max": [
        1.0,
        1.0,
        1.0
      ],
      "min": [
        -0.0,
        -1.0,
        0.0
      ],
      "type": "VEC3"
    },
    {
      "bufferView": 1,
      "byteOffset": 544,
      "componentType": 5126,
      "count": 140,
      "max": [
        19253.44921875,
        10491.9482421875
      ],
      "min": [
        -13772.958984375,
        -1636.91162109375
      ],
      "type": "VEC2"
    },
    {
      "bufferView": 0,
      "byteOffset": 720,
      "componentType": 5125,
      "count": 204,
      "type": "SCALAR"
    },
    {
      "bufferView": 2,
      "byteOffset": 4992,
      "componentType": 5126,
      "count": 253,
      "max": [
        1053.27880859375,
        494.50274658203125,
        124.1355972290039
      ],
      "min": [
        221.25515747070313,
        38.49725341796875,
        15.22330379486084
      ],
      "type": "VEC3"
    },
    {
      "bufferView": 2,
      "byteOffset": 8028,
      "componentType": 5126,
      "count": 253,
      "max": [
        0.9999902248382568,
        0.21480639278888702,
        0.9995342493057251
      ],
      "min": [
        -0.9999902248382568,
        -0.21480625867843628,
        -0.9972188472747803
      ],
      "type": "VEC3"
    },
    {
      "bufferView": 1,
      "byteOffset": 1664,
      "componentType": 5126,
      "count": 253,
      "max": [
        31856.125,
        18014.6328125
      ],
      "min": [
        -26645.197265625,
        -41315.4140625
      ],
      "type": "VEC2"
    },
    {
      "bufferView": 0,
      "byteOffset": 1536,
      "componentType": 5125,
      "count": 501,
      "type": "SCALAR"
    },
    {
      "bufferView": 2,
      "byteOffset": 11064,
      "componentType": 5126,
      "count": 502,
      "max": [
        1137.0,
        498.9876708984375,
        126.05883026123047
      ],
      "min": [
        204.33078002929688,
        34.01233673095703,
        18.177797317504883
      ],
      "type": "VEC3"
    },
    {
      "bufferView": 2,
      "byteOffset": 17088,
      "componentType": 5126,
      "count": 502,
      "max": [
        1.0,
        0.37124282121658325,
        0.999957799911499
      ],
      "min": [
        -1.0,
        -0.37124285101890564,
        -0.9751031398773193
      ],
      "type": "VEC3"
    },
    {
      "bufferView": 1,
      "byteOffset": 3688,
      "componentType": 5126,
      "count": 502,
      "max": [
        45586.3046875,
        40606.55078125
      ],
      "min": [
        -40375.375,
        -44329.09765625
      ],
      "type": "VEC2"
    },
    {
      "bufferView": 0,
      "byteOffset": 3540,
      "componentType": 5125,
      "count": 948,
      "type": "SCALAR"
    },
    {
      "bufferView": 2,
      "byteOffset": 23112,
      "componentType": 5126,
      "count": 832,
      "max": [
        1140.25,
        533.0,
        283.4857177734375
      ],
      "min": [
        165.56593322753906,
        -0.05370156839489937,
        3.8644275665283203
      ],
      "type": "VEC3"
    },
    {
      "bufferView": 2,
      "byteOffset": 33096,
      "componentType": 5126,
      "count": 832,
      "max": [
        1.0,
        1.0,
        1.0
      ],
      "min": [
        -1.0,
        -1.0,
        -1.0
      ],
      "type": "VEC3"
    },
    {
      "bufferView": 1,
      "byteOffset": 7704,
      "componentType": 5126,
      "count": 832,
      "max": [
        3810.23095703125,
        1770.931396484375
      ],
      "min": [
        -3740.977783203125,
        -2365.137451171875
      ],
      "type": "VEC2"
    },
    {
      "bufferView": 0,
      "byteOffset": 7332,
      "componentType": 5125,
      "count": 1695,
      "type": "SCALAR"
    },
    {
      "bufferView": 2,
      "byteOffset": 43080,
      "componentType": 5126,
      "count": 5700,
      "max": [
        1138.0,
        528.8621215820313,
        283.4857177734375
      ],
      "min": [
        0.6616506576538086,
        4.137872695922852,
        5.9551472663879395
      ],
      "type": "VEC3"
    },
    {
      "bufferView": 2,
      "byteOffset": 111480,
      "componentType": 5126,
      "count": 5700,
      "max": [
        1.0,
        1.0,
        0.9995348453521729
      ],
      "min": [
        -1.0,
        -1.0,
        -1.0
      ],
      "type": "VEC3"
    },
    {
      "bufferView": 1,
      "byteOffset": 14360,
      "componentType": 5126,
      "count": 5700,
      "max": [
        44883.80859375,
        28452.427734375
      ],
      "min": [
        -40002.4609375,
        -27333.55078125
      ],
      "type": "VEC2"
    },
    {
      "bufferView": 0,
      "byteOffset": 14112,
      "componentType": 5125,
      "count": 11757,
      "type": "SCALAR"
    },
    {
      "bufferView": 2,
      "byteOffset": 179880,
      "componentType": 5126,
      "count": 9366,
      "max": [
        1140.25,
        533.0537109375,
        283.4857177734375
      ],
      "min": [
        -0.005591082852333784,
        0.0,
        0.0
      ],
      "type": "VEC3"
    },
    {
      "bufferView": 2,
      "byteOffset": 292272,
      "componentType": 5126,
      "count": 9366,
      "max": [
        1.0,
        1.0,
        1.0
      ],
      "min": [
        -1.0,
        -1.0,
        -1.0
      ],
      "type": "VEC3"
    },
    {
      "bufferView": 1,
      "byteOffset": 59960,
      "componentType": 5126,
      "count": 9366,
      "max": [
        45906.01171875,
        29727.89453125
      ],
      "min": [
        -44891.73046875,
        -44777.3359375
      ],
      "type": "VEC2"
    },
    {
      "bufferView": 0,
      "byteOffset": 61140,
      "componentType": 5125,
      "count": 19881,
      "type": "SCALAR"
    },
    {
      "bufferView": 2,
      "byteOffset": 404664,
      "componentType": 5126,
      "count": 5411,
      "max": [
        819.7431640625,
        392.08148193359375,
        131.2422637939453
      ],
      "min": [
        285.1145324707031,
        140.91851806640625,
        58.66340637207031
      ],
      "type": "VEC3"
    },
    {
      "bufferView": 2,
      "byteOffset": 469596,
      "componentType": 5126,
      "count": 5411,
      "max": [
        1.0,
        1.0,
        1.0
      ],
      "min": [
        -1.0,
        -1.0,
        -1.0
      ],
      "type": "VEC3"
    },
    {
      "bufferView": 1,
      "byteOffset": 134888,
      "componentType": 5126,
      "count": 5411,
      "max": [
        34595.12109375,
        24177.791015625
      ],
      "min": [
        -32688.4453125,
        -21402.640625
      ],
      "type": "VEC2"
    },
    {
      "bufferView": 0,
      "byteOffset": 140664,
      "componentType": 5125,
      "count": 10989,
      "type": "SCALAR"
    },
    {
      "bufferView": 2,
      "byteOffset": 534528,
      "componentType": 5126,
      "count": 1166,
      "max": [
        546.9865112304688,
        412.999755859375,
        94.68238830566406
      ],
      "min": [
        76.7294921875,
        120.00025939941406,
        44.27888488769531
      ],
      "type": "VEC3"
    },
    {
      "bufferView": 2,
      "byteOffset": 548520,
      "componentType": 5126,
      "count": 1166,
      "max": [
        -0.9484107494354248,
        0.31433138251304626,
        0.3143292963504791
      ],
      "min": [
        -1.0,
        -0.31433114409446716,
        -0.3143292963504791
      ],
      "type": "VEC3"
    },
    {
      "bufferView": 1,
      "byteOffset": 178176,
      "componentType": 5126,
      "count": 1166,
      "max": [
        -2684.325439453125,
        5722.95263671875
      ],
      "min": [
        -17234.447265625,
        -148.60125732421875
      ],
      "type": "VEC2"
    },
    {
      "bufferView": 0,
      "byteOffset": 184620,
      "componentType": 5125,
      "count": 2142,
      "type": "SCALAR"
    },
    {
      "bufferView": 2,
      "byteOffset": 562512,
      "componentType": 5126,
      "count": 30589,
      "max": [
        1138.0,
        533.0537109375,
        283.4857177734375
      ],
      "min": [
        -0.005591082852333784,
        -0.05370156839489937,
        0.0
      ],
      "type": "VEC3"
    },
    {
      "bufferView": 2,
      "byteOffset": 929580,
      "componentType": 5126,
      "count": 30589,
      "max": [
        1.0,
        1.0,
        1.0
      ],
      "min": [
        -1.0,
        -1.0,
        -1.0
      ],
      "type": "VEC3"
    },
    {
      "bufferView": 1,
      "byteOffset": 187504,
      "componentType": 5126,
      "count": 30589,
      "max": [
        45072.23828125,
        44892.10546875
      ],
      "min": [
        -45784.671875,
        -44875.2578125
      ],
      "type": "VEC2"
    },
    {
      "bufferView": 0,
      "byteOffset": 193188,
      "componentType": 5125,
      "count": 53745,
      "type": "SCALAR"
    },
    {
      "bufferView": 2,
      "byteOffset": 1296648,
      "componentType": 5126,
      "count": 9651,
      "max": [
        823.9744873046875,
        433.5966796875,
        128.2422637939453
      ],
      "min": [
        117.93016052246094,
        99.40330505371094,
        34.54845428466797
      ],
      "type": "VEC3"
    },
    {
      "bufferView": 2,
      "byteOffset": 1412460,
      "componentType": 5126,
      "count": 9651,
      "max": [
        1.0,
        1.0,
        1.0
      ],
      "min": [
        -1.0,
        -1.0,
        -1.0
      ],
      "type": "VEC3"
    },
    {
      "bufferView": 1,
      "byteOffset": 432216,
      "componentType": 5126,
      "count": 9651,
      "max": [
        32688.4453125,
        21368.765625
      ],
      "min": [
        -34460.1328125,
        -17461.443359375
      ],
      "type": "VEC2"
    },
    {
      "bufferView": 0,
      "byteOffset": 408168,
      "componentType": 5125,
      "count": 15291,
      "type": "SCALAR"
    },
    {
      "bufferView": 2,
      "byteOffset": 1528272,
      "componentType": 5126,
      "count": 125,
      "max": [
        840.0372314453125,
        414.9151306152344,
        275.9857177734375
      ],
      "min": [
        188.99844360351563,
        146.35501098632813,
        -1.562964677810669
      ],
      "type": "VEC3"
    },
    {
      "bufferView": 2,
      "byteOffset": 1529772,
      "componentType": 5126,
      "count": 125,
      "max": [
        0.5865891575813293,
        0.0,
        0.7926880121231079
      ],
      "min": [
        -0.5865904688835144,
        -1.0,
        -1.0
      ],
      "type": "VEC3"
    },
    {
      "bufferView": 1,
      "byteOffset": 509424,
      "componentType": 5126,
      "count": 125,
      "max": [
        1.0,
        1.0
      ],
      "min": [
        0.0,
        0.0
      ],
      "type": "VEC2"
    },
    {
      "bufferView": 0,
      "byteOffset": 469332,
      "componentType": 5125,
      "count": 150,
      "type": "SCALAR"
    }
  ],
  "asset": {
    "extras": {
      "author": "Digital Sock (https://sketchfab.com/DigitalSock)",
      "license": "CC-BY-4.0 (http://creativecommons.org/licenses/by/4.0/)",
      "source": "https://sketchfab.com/3d-models/venator-class-star-destroyer-af3648043a5b4fd394adfc32baee369e",
      "title": "Venator Class Star Destroyer"
    },
    "generator": "Sketchfab-12.66.0",
    "version": "2.0"
  },
  "bufferViews": [
    {
      "buffer": 0,
      "byteLength": 469932,
      "name": "floatBufferViews",
      "target": 34963
    },
    {
      "buffer": 0,
      "byteLength": 510424,
      "byteOffset": 469932,
      "byteStride": 8,
      "name": "floatBufferViews",
      "target": 34962
    },
    {
      "buffer": 0,
      "byteLength": 1531272,
      "byteOffset": 980356,
      "byteStride": 12,
      "name": "floatBufferViews",
      "target": 34962
    }
  ],
  "buffers": [
    {
      "byteLength": 2511628,
      "uri": "scene.bin"
    }
  ],
  "extensionsUsed": [
    "KHR_materials_clearcoat"
  ],
  "materials": [
    {
      "doubleSided": true,
      "name": "Basic_Ti",
      "pbrMetallicRoughness": {
        "baseColorFactor": [
          0.796078,
          0.807843,
          0.792157,
          1.0
        ],
        "metallicFactor": 0.0,
        "roughnessFactor": 0.6
      }
    },
    {
      "doubleSided": true,
      "name": "Color_01",
      "pbrMetallicRoughness": {
        "baseColorFactor": [
          0.556863,
          0.556863,
          0.556863,
          1.0
        ],
        "metallicFactor": 0.0,
        "roughnessFactor": 0.251714939
      }
    },
    {
      "doubleSided": true,
      "name": "Color_02",
      "pbrMetallicRoughness": {
        "baseColorFactor": [
          0.666667,
          0.666667,
          0.666667,
          1.0
        ],
        "metallicFactor": 0.0,
        "roughnessFactor": 0.6
      }
    },
    {
      "doubleSided": true,
      "name": "Color_D0",
      "pbrMetallicRoughness": {
        "baseColorFactor": [
          0.8,
          0.6,
          0.0,
          1.0
        ],
        "metallicFactor": 0.0,
        "roughnessFactor": 0.6
      }
    },
    {
      "doubleSided": true,
      "emissiveFactor": [
        0.8174929593621604,
        0.8708079268292683,
        0.3781489452535313
      ],
      "extensions": {
        "KHR_materials_clearcoat": {
          "clearcoatFactor": 1.0,
          "clearcoatRoughnessFactor": 0.04
        }
      },
      "name": "Color_E0",
      "pbrMetallicRoughness": {
        "baseColorFactor": [
          1.0,
          1.0,
          0.8,
          1.0
        ],
        "metallicFactor": 0.0,
        "roughnessFactor": 0.0
      }
    },
    {
      "doubleSided": true,
      "emissiveFactor": [
        0.0,
        1.0,
        1.0
      ],
      "extensions": {
        "KHR_materials_clearcoat": {
          "clearcoatFactor": 1.0,
          "clearcoatRoughnessFactor": 1.0
        }
      },
      "name": "Color_H0",
      "pbrMetallicRoughness": {
        "baseColorFactor": [
          0.6,
          1.0,
          1.0,
          1.0
        ],
        "metallicFactor": 0.0,
        "roughnessFactor": 0.0
      }
    },
    {
      "doubleSided": true,
      "name": "Color_M0",
      "pbrMetallicRoughness": {
        "baseColorFactor": [
          0.3919588415,
          0.3919588415,
          0.3919588415,
          1.0
        ],
        "metallicFactor": 0.0,
        "roughnessFactor": 0.6419588415
      }
    },
    {
      "doubleSided": true,
      "name": "Josh_S01",
      "pbrMetallicRoughness": {
        "baseColorFactor": [
          0.415686,
          0.0,
          0.00392157,
          1.0
        ],
        "metallicFactor": 0.0,
        "roughnessFactor": 0.6
      }
    },
    {
      "doubleSided": true,
      "name": "Josh_Shi",
      "pbrMetallicRoughness": {
        "baseColorFactor": [
          0.533333,
          0.00392157,
          0.00784314,
          1.0
        ],
        "metallicFactor": 0.0,
        "roughnessFactor": 0.6
      }
    },
    {
      "doubleSided": true,
      "name": "Foregrou",
      "pbrMetallicRoughness": {
        "baseColorFactor": [
          0.0,
          0.0,
          0.0,
          1.0
        ],
        "metallicFactor": 0.0,
        "roughnessFactor": 0.6
      }
    }
  ],
  "meshes": [
    {
      "name": "Object_0",
      "primitives": [
        {
          "attributes": {
            "NORMAL": 1,
            "POSITION": 0,
            "TEXCOORD_0": 2
          },
          "indices": 3,
          "material": 3,
          "mode": 4
        }
      ]
    },
    {
      "name": "Object_1",
      "primitives": [
        {
          "attributes": {
            "NORMAL": 5,
            "POSITION": 4,
            "TEXCOORD_0": 6
          },
          "indices": 7,
          "material": 4,
          "mode": 4
        }
      ]
    },
    {
      "name": "Object_2",
      "primitives": [
        {
          "attributes": {
            "NORMAL": 9,
            "POSITION": 8,
            "TEXCOORD_0": 10
          },
          "indices": 11,
          "material": 7,
          "mode": 4
        }
      ]
    },
    {
      "name": "Object_3",
      "primitives": [
        {
          "attributes": {
            "NORMAL": 13,
            "POSITION": 12,
            "TEXCOORD_0": 14
          },
          "indices": 15,
          "material": 8,
          "mode": 4
        }
      ]
    },
    {
      "name": "Object_4",
      "primitives": [
        {
          "attributes": {
            "NORMAL": 17,
            "POSITION": 16,
            "TEXCOORD_0": 18
          },
          "indices": 19,
          "material": 0,
          "mode": 4
        }
      ]
    },
    {
      "name": "Object_5",
      "primitives": [
        {
          "attributes": {
            "NORMAL": 21,
            "POSITION": 20,
            "TEXCOORD_0": 22
          },
          "indices": 23,
          "material": 1,
          "mode": 4
        }
      ]
    },
    {
      "name": "Object_6",
      "primitives": [
        {
          "attributes": {
            "NORMAL": 25,
            "POSITION": 24,
            "TEXCOORD_0": 26
          },
          "indices": 27,
          "material": 2,
          "mode": 4
        }
      ]
    },
    {
      "name": "Object_7",
      "primitives": [
        {
          "attributes": {
            "NORMAL": 29,
            "POSITION": 28,
            "TEXCOORD_0": 30
          },
          "indices": 31,
          "material": 2,
          "mode": 4
        }
      ]
    },
    {
      "name": "Object_8",
      "primitives": [
        {
          "attributes": {
            "NORMAL": 33,
            "POSITION": 32,
            "TEXCOORD_0": 34
          },
          "indices": 35,
          "material": 5,
          "mode": 4
        }
      ]
    },
    {
      "name": "Object_9",
      "primitives": [
        {
          "attributes": {
            "NORMAL": 37,
            "POSITION": 36,
            "TEXCOORD_0": 38
          },
          "indices": 39,
          "material": 6,
          "mode": 4
        }
      ]
    },
    {
      "name": "Object_10",
      "primitives": [
        {
          "attributes": {
            "NORMAL": 41,
            "POSITION": 40,
            "TEXCOORD_0": 42
          },
          "indices": 43,
          "material": 6,
          "mode": 4
        }
      ]
    },
    {
      "name": "Object_11",
      "primitives": [
        {
          "attributes": {
            "NORMAL": 45,
            "POSITION": 44,
            "TEXCOORD_0": 46
          },
          "indices": 47,
          "material": 9,
          "mode": 4
        }
      ]
    }
  ],
  "nodes": [
    {
      "children": [
        1
      ],
      "matrix": [
        0.009999999776482582,
        0.0,
        0.0,
        0.0,
        0.0,
        2.2204459996194763e-18,
        -0.009999999776482582,
        0.0,
        0.0,
        0.009999999776482582,
        2.2204459996194763e-18,
        0.0,
        0.0,
        0.0,
        0.0,
        1.0
      ],
      "name": "Sketchfab_model"
    },
    {
      "children": [
        2
      ],
      "name": "80affead90c543f4bba287151d85c677.3ds"
    },
    {
      "children": [
        3,
        4,
        5,
        6,
        7,
        8,
        9,
        10,
        11,
        12,
        13,
        14
      ],
      "name": "Model"
    },
    {
      "mesh": 0,
      "name": "Object_3"
    },
    {
      "mesh": 1,
      "name": "Object_4"
    },
    {
      "mesh": 2,
      "name": "Object_5"
    },
    {
      "mesh": 3,
      "name": "Object_6"
    },
    {
      "mesh": 4,
      "name": "Object_7"
    },
    {
      "mesh": 5,
      "name": "Object_8"
    },
    {
      "mesh": 6,
      "name": "Object_9"
    },
    {
      "mesh": 7,
      "name": "Object_10"
    },
    {
      "mesh": 8,
      "name": "Object_11"
    },
    {
      "mesh": 9,
      "name": "Object_12"
    },
    {
      "mesh": 10,
      "name": "Object_13"
    },
    {
      "mesh": 11,
      "name": "Object_14"
    }
  ],
  "scene": 0,
  "scenes": [
    {
      "name": "Sketchfab_Scene",
      "nodes": [
        0
      ]
    }
  ]
}
